<?xml version="1.0" standalone="no"?>
<!DOCTYPE svg PUBLIC "-//W3C//DTD SVG 20010904//EN"
 "http://www.w3.org/TR/2001/REC-SVG-20010904/DTD/svg10.dtd">
<svg version="1.0" xmlns="http://www.w3.org/2000/svg"
 width="480.000000pt" height="320.000000pt" viewBox="0 0 480.000000 320.000000"
 preserveAspectRatio="xMidYMid meet">

<g transform="translate(0.000000,320.000000) scale(0.100000,-0.100000)"
fill="#000000" stroke="none">
<path d="M550 2074 c0 -66 -62 -207 -215 -489 -108 -199 -138 -334 -99 -447
36 -106 171 -208 334 -252 14 -4 -3 8 -36 27 -130 71 -216 151 -249 230 -23
55 -19 160 9 240 13 37 63 138 110 225 109 201 146 300 153 410 3 45 3 82 -1
82 -3 0 -6 -12 -6 -26z"/>
<path d="M1040 1790 l0 -260 130 0 130 0 0 50 0 50 -85 0 -85 0 0 210 0 210
-45 0 -45 0 0 -260z"/>
<path d="M2321 2036 c-137 -50 -203 -230 -133 -367 79 -156 288 -186 408 -57
120 127 86 336 -68 412 -58 29 -146 34 -207 12z m169 -85 c19 -10 48 -37 65
-60 57 -81 28 -207 -60 -259 -50 -28 -131 -26 -173 5 -109 81 -106 234 7 310
42 29 112 31 161 4z"/>
<path d="M1446 1838 c-43 -112 -87 -224 -97 -250 l-19 -48 44 0 44 0 28 73 29
72 90 0 90 0 29 -72 28 -73 44 0 44 0 -18 48 c-10 26 -54 138 -97 250 l-78
202 -41 0 -42 0 -78 -202z m152 6 c12 -34 22 -66 22 -73 0 -7 -20 -11 -55 -11
-63 0 -64 1 -35 80 12 30 23 61 26 69 7 21 18 4 42 -65z"/>
<path d="M1820 1789 l0 -251 105 4 c85 3 109 7 132 24 65 48 82 143 37 209
-21 32 -24 42 -15 62 16 34 14 109 -4 142 -22 44 -70 61 -169 61 l-86 0 0
-251z m174 155 c20 -19 21 -68 1 -84 -8 -6 -32 -14 -55 -17 l-40 -6 0 62 0 61
39 0 c23 0 46 -7 55 -16z m21 -209 c14 -13 25 -33 25 -45 0 -38 -44 -70 -95
-70 l-45 0 0 70 0 70 45 0 c35 0 52 -6 70 -25z"/>
<path d="M2745 1790 l0 -250 43 0 43 0 -1 128 c-1 70 -1 164 -1 210 l1 82 58
0 c71 0 102 -25 102 -82 0 -48 -29 -72 -96 -78 l-54 -5 77 -127 78 -128 48 0
c55 0 56 -6 -21 114 -40 63 -42 70 -26 79 84 47 108 175 47 247 -43 51 -71 60
-190 60 l-108 0 0 -250z"/>
<path d="M3170 1790 l0 -250 40 0 40 0 0 155 c0 85 3 155 8 155 4 0 34 -70 67
-155 l60 -155 35 0 35 0 60 155 c33 85 63 155 68 155 4 0 7 -70 7 -155 l0
-155 40 0 40 0 0 251 0 250 -52 -3 -53 -3 -69 -177 c-39 -98 -72 -178 -75
-178 -4 0 -37 81 -76 180 l-70 179 -52 1 -53 0 0 -250z"/>
<path d="M3740 1790 l0 -250 140 0 140 0 0 40 0 40 -100 0 -100 0 0 65 0 65
100 0 100 0 0 40 0 39 -97 3 -98 3 -3 63 -3 62 101 0 100 0 0 40 0 40 -140 0
-140 0 0 -250z"/>
<path d="M4100 1789 l0 -251 123 3 c112 4 126 6 170 32 157 93 150 358 -12
444 -39 20 -58 23 -163 23 l-118 0 0 -251z m265 141 c46 -43 57 -76 53 -151
-6 -112 -58 -159 -175 -159 l-63 0 0 171 0 171 79 -3 c68 -4 83 -8 106 -29z"/>
<path d="M642 1930 c-17 -78 -62 -190 -142 -350 -79 -158 -110 -251 -110 -332
0 -130 52 -209 179 -273 85 -42 103 -45 41 -6 -58 36 -126 111 -151 164 -23
53 -25 158 -3 224 9 26 44 109 79 183 92 197 132 332 123 421 -3 29 -5 25 -16
-31z"/>
<path d="M758 1793 c-10 -32 -49 -114 -88 -183 -129 -227 -158 -308 -145 -398
5 -38 15 -55 53 -92 40 -38 155 -110 176 -110 4 0 -21 21 -56 48 -109 82 -147
166 -118 258 6 22 50 116 96 209 55 111 88 190 95 228 15 85 7 109 -13 40z"/>
<path d="M1047 1394 c-4 -4 -4 -11 -1 -15 3 -5 768 -9 1710 -9 1508 0 1704 2
1704 15 0 13 -196 15 -1703 15 -937 0 -1707 -3 -1710 -6z"/>
<path d="M1910 1301 c-5 -11 -10 -28 -10 -39 0 -10 -9 -45 -20 -77 -11 -32
-20 -64 -20 -72 0 -23 19 -14 26 12 4 18 13 25 30 25 17 0 27 -8 34 -25 5 -14
14 -25 20 -25 14 0 13 3 -15 97 -20 64 -23 88 -15 103 8 16 8 20 -4 20 -9 0
-20 -9 -26 -19z m20 -106 c0 -8 -4 -15 -10 -15 -5 0 -10 7 -10 15 0 8 5 15 10
15 6 0 10 -7 10 -15z"/>
<path d="M3194 1298 c-14 -34 -6 -200 9 -195 8 2 12 33 13 95 0 51 4 95 7 99
11 11 8 23 -6 23 -8 0 -18 -10 -23 -22z"/>
<path d="M1541 1200 c-12 -38 -24 -76 -27 -85 -4 -9 -1 -15 9 -15 8 0 18 11
21 25 5 18 13 25 31 25 18 0 26 -7 31 -25 3 -14 13 -25 21 -25 9 0 13 6 10 14
-3 7 -15 46 -27 85 -12 43 -26 71 -34 71 -9 0 -23 -28 -35 -70z m49 -11 c0 -5
-7 -9 -15 -9 -15 0 -20 12 -9 23 8 8 24 -1 24 -14z"/>
<path d="M1692 1188 c2 -52 7 -83 15 -85 8 -3 13 13 15 49 l3 53 25 -50 c39
-77 50 -71 50 29 0 51 -4 86 -10 86 -5 0 -10 -20 -10 -45 0 -25 -4 -45 -8 -45
-4 0 -18 20 -30 45 -12 25 -29 45 -37 45 -13 0 -15 -13 -13 -82z"/>
<path d="M2040 1185 l0 -85 35 0 c40 0 50 26 13 32 -21 3 -23 9 -26 71 -4 97
-22 83 -22 -18z"/>
<path d="M2170 1184 c0 -64 3 -85 13 -82 8 3 13 32 15 86 2 68 0 82 -13 82
-12 0 -15 -15 -15 -86z"/>
<path d="M2270 1251 c-15 -30 -13 -40 21 -71 17 -15 28 -33 25 -39 -10 -16
-26 -13 -26 4 0 8 -7 15 -15 15 -18 0 -19 -14 -5 -41 23 -41 70 -16 70 38 0
26 -6 36 -25 45 -14 6 -25 17 -25 25 0 16 12 17 28 1 16 -16 25 -4 17 21 -8
27 -51 28 -65 2z"/>
<path d="M2410 1184 l0 -85 37 3 c44 4 56 25 16 30 -37 4 -37 32 0 36 15 2 27
9 27 17 0 8 -12 15 -27 17 -17 2 -28 9 -28 18 0 9 11 16 28 18 45 5 34 32 -13
32 l-40 0 0 -86z"/>
<path d="M2560 1250 c-15 -28 -5 -54 26 -70 13 -8 23 -20 22 -29 -4 -20 -28
-26 -28 -7 0 9 -7 16 -15 16 -20 0 -19 -24 1 -44 32 -32 64 -11 64 41 0 26 -6
36 -25 45 -27 12 -34 38 -10 38 8 0 15 -4 15 -10 0 -5 5 -10 11 -10 6 0 9 10
7 23 -4 31 -52 36 -68 7z"/>
<path d="M2880 1248 c-29 -32 -27 -92 5 -123 13 -14 32 -25 42 -25 25 0 63 28
63 46 0 18 -14 18 -30 -1 -19 -23 -53 -14 -68 18 -12 24 -11 31 2 53 18 27 36
30 66 12 27 -17 37 -2 15 22 -24 26 -69 26 -95 -2z"/>
<path d="M3060 1184 l0 -85 32 3 c37 4 49 25 16 30 -21 3 -23 9 -26 71 -4 97
-22 83 -22 -19z"/>
<path d="M3290 1196 c0 -42 0 -79 -1 -83 0 -4 4 -9 10 -11 7 -2 11 14 11 42 0
25 4 46 8 46 4 0 18 -20 30 -45 12 -25 26 -45 32 -45 6 0 10 34 10 85 0 50 -4
85 -10 85 -5 0 -10 -20 -10 -45 0 -25 -3 -45 -7 -45 -5 0 -17 19 -29 42 -33
66 -44 60 -44 -26z"/>
<path d="M3462 1188 c2 -54 7 -83 16 -86 9 -3 12 18 12 82 0 71 -3 86 -15 86
-13 0 -15 -14 -13 -82z"/>
<path d="M3578 1253 c-25 -28 -30 -60 -18 -98 19 -57 70 -72 108 -32 12 13 22
26 22 30 0 12 -23 7 -41 -9 -39 -35 -85 18 -60 72 11 26 48 33 68 13 20 -20
34 -6 18 19 -20 27 -75 30 -97 5z"/>
<path d="M3763 1196 c-13 -41 -23 -79 -23 -85 0 -21 20 -11 26 14 4 18 13 25
30 25 17 0 27 -8 34 -25 5 -14 14 -25 20 -25 14 0 13 4 -13 90 -30 100 -46
101 -74 6z m47 -1 c0 -8 -4 -15 -10 -15 -5 0 -10 7 -10 15 0 8 5 15 10 15 6 0
10 -7 10 -15z"/>
<path d="M3932 1258 c-20 -20 -14 -56 13 -74 14 -9 25 -25 25 -35 0 -23 -18
-25 -26 -4 -8 21 -24 19 -24 -3 0 -38 37 -54 64 -26 24 23 19 60 -9 82 -25 20
-33 42 -15 42 6 0 10 -4 10 -10 0 -5 7 -10 15 -10 18 0 18 5 5 31 -12 21 -40
25 -58 7z"/>
<path d="M1045 1190 c-3 -5 -5 -10 -3 -10 2 -1 45 -2 96 -3 68 -1 92 1 92 11
0 15 -176 17 -185 2z"/>
<path d="M4280 1188 c0 -10 25 -13 90 -13 65 0 90 3 90 13 0 9 -25 12 -90 12
-65 0 -90 -3 -90 -12z"/>
<path d="M1040 990 c0 -7 579 -10 1716 -10 1141 0 1713 3 1709 10 -9 14 -3425
14 -3425 0z"/>
</g>
</svg>
