<?xml version="1.0" standalone="no"?>
<!DOCTYPE svg PUBLIC "-//W3C//DTD SVG 20010904//EN"
 "http://www.w3.org/TR/2001/REC-SVG-20010904/DTD/svg10.dtd">
<svg version="1.0" xmlns="http://www.w3.org/2000/svg"
 width="480.000000pt" height="320.000000pt" viewBox="0 0 480.000000 320.000000"
 preserveAspectRatio="xMidYMid meet">

<g transform="translate(0.000000,320.000000) scale(0.100000,-0.100000)"
fill="#000000" stroke="none">
<path d="M1936 2481 c-18 -19 -25 -34 -20 -43 7 -12 264 -336 303 -381 11 -14
12 -22 4 -35 -5 -9 -71 -110 -146 -224 l-136 -207 31 -18 c31 -18 36 -18 356
27 371 52 335 35 346 165 3 44 9 99 12 123 l6 42 -85 0 -85 0 -17 -50 c-9 -28
-27 -57 -38 -65 -12 -7 -57 -17 -100 -20 l-78 -7 82 128 c45 71 89 141 97 155
15 24 13 29 -66 141 -45 63 -82 118 -82 122 0 10 47 7 74 -5 22 -10 47 -48 60
-91 7 -23 45 -23 114 -3 51 15 52 17 52 53 -1 45 -16 182 -21 187 -2 2 -123 8
-269 14 -146 6 -288 13 -316 16 -46 4 -53 2 -78 -24z"/>
<path d="M946 1348 l2 -53 61 -3 61 -3 0 56 0 55 -63 0 -62 0 1 -52z"/>
<path d="M515 1362 c-76 -37 -112 -103 -98 -182 13 -74 53 -105 186 -141 89
-25 117 -42 117 -73 0 -67 -108 -82 -204 -27 l-55 30 -35 -42 -35 -42 51 -32
c54 -34 123 -53 191 -53 133 0 217 82 204 197 -8 74 -58 113 -196 151 -107 31
-137 66 -90 108 30 27 96 23 159 -9 l50 -26 31 46 c26 37 29 47 18 55 -78 54
-222 74 -294 40z"/>
<path d="M1295 1235 c-130 -46 -168 -235 -66 -336 35 -35 91 -59 139 -59 31 0
92 26 121 53 l24 22 -6 -45 c-9 -69 -49 -100 -127 -100 -34 0 -77 7 -97 15
-49 21 -50 20 -72 -26 l-20 -40 33 -14 c95 -40 253 -37 323 6 17 11 42 41 55
67 21 44 23 61 26 255 l4 207 -61 0 c-58 0 -61 -1 -61 -25 0 -26 -14 -33 -26
-14 -11 18 -86 49 -119 48 -16 0 -48 -6 -70 -14z m181 -119 c26 -26 34 -42 34
-71 0 -55 -52 -105 -110 -105 -58 0 -110 50 -110 105 0 55 52 105 110 105 34
0 48 -6 76 -34z"/>
<path d="M1932 1230 c-23 -10 -45 -26 -48 -35 -10 -25 -24 -17 -24 15 0 30 -1
30 -55 30 l-54 0 -3 -215 -3 -215 60 0 60 0 -3 102 c-4 127 4 184 29 209 27
27 75 24 104 -6 24 -23 25 -29 25 -165 l0 -140 60 0 60 0 0 139 c0 125 2 141
21 165 27 34 77 36 107 3 20 -22 22 -33 22 -165 l0 -142 60 0 60 0 0 166 c0
196 -9 225 -74 255 -23 10 -50 19 -61 19 -37 0 -94 -21 -123 -45 l-29 -25 -19
22 c-22 25 -74 48 -106 48 -13 0 -42 -9 -66 -20z"/>
<path d="M950 1025 l0 -215 60 0 60 0 0 215 0 215 -60 0 -60 0 0 -215z"/>
<path d="M2585 1226 c-43 -13 -46 -25 -26 -79 9 -24 13 -26 36 -17 34 13 131
13 155 0 16 -9 45 -68 37 -77 -2 -2 -26 2 -54 8 -91 21 -189 -10 -221 -71 -19
-37 -10 -115 18 -145 48 -51 162 -59 220 -16 36 26 39 26 33 1 -5 -18 0 -20
56 -20 l61 0 0 138 c0 192 -19 245 -97 278 -40 17 -163 17 -218 0z m179 -236
c35 -13 33 -44 -3 -81 -37 -36 -99 -41 -131 -9 -26 26 -25 46 5 75 26 27 82
33 129 15z"/>
<path d="M3117 1210 c-81 -25 -137 -107 -137 -204 0 -123 84 -206 208 -206 47
0 67 6 104 29 46 29 67 51 50 51 -5 0 -15 -7 -23 -16 -38 -46 -141 -68 -206
-43 -68 25 -123 109 -123 186 1 166 177 258 309 162 23 -16 41 -26 41 -22 0
11 -58 49 -93 62 -33 13 -90 13 -130 1z"/>
<path d="M3577 1210 c-81 -24 -137 -107 -137 -203 0 -67 12 -102 48 -140 93
-99 264 -88 333 21 110 174 -47 381 -244 322z m148 -19 c78 -36 116 -97 116
-187 0 -114 -80 -194 -195 -194 -58 0 -93 14 -135 53 -42 40 -61 84 -61 142 0
149 144 247 275 186z"/>
<path d="M4110 1213 c-31 -12 -73 -47 -91 -77 l-19 -31 0 53 c0 28 -3 52 -7
52 -5 0 -8 -90 -8 -200 0 -110 3 -200 8 -200 4 0 7 58 7 129 0 143 7 171 52
218 77 79 207 63 252 -31 12 -26 16 -66 16 -175 0 -97 3 -141 11 -141 8 0 10
42 7 143 -4 171 -18 208 -88 245 -42 21 -105 28 -140 15z"/>
</g>
</svg>
