<?xml version="1.0" standalone="no"?>
<!DOCTYPE svg PUBLIC "-//W3C//DTD SVG 20010904//EN"
 "http://www.w3.org/TR/2001/REC-SVG-20010904/DTD/svg10.dtd">
<svg version="1.0" xmlns="http://www.w3.org/2000/svg"
 width="480.000000pt" height="320.000000pt" viewBox="0 0 480.000000 320.000000"
 preserveAspectRatio="xMidYMid meet">

<g transform="translate(0.000000,320.000000) scale(0.100000,-0.100000)"
fill="#000000" stroke="none">
<path d="M258 1749 c-1 -33 -1 -63 1 -65 2 -2 46 -4 97 -4 51 0 99 -3 108 -6
14 -5 16 -33 16 -210 l0 -204 70 0 70 0 0 198 c0 141 3 201 12 210 8 8 47 12
109 12 l97 0 -1 63 -2 62 -287 3 -286 2 -4 -61z"/>
<path d="M940 1545 c0 -146 -1 -268 -2 -272 -2 -5 30 -9 70 -11 l72 -3 0 96 0
95 48 0 c47 0 49 -2 142 -95 l95 -95 80 0 80 0 -84 84 c-46 46 -82 89 -79 96
2 7 19 18 38 24 57 18 80 64 80 158 0 97 -14 127 -76 162 -46 26 -49 26 -255
26 l-209 0 0 -265z m381 106 c24 -29 24 -53 0 -82 -17 -21 -29 -24 -105 -28
-48 -1 -98 0 -111 3 -23 6 -25 11 -25 65 0 38 5 61 13 65 6 3 56 4 110 3 90
-2 100 -4 118 -26z"/>
<path d="M1610 1535 l0 -275 70 0 70 0 -2 273 -3 272 -67 3 -68 3 0 -276z"/>
<path d="M1850 1585 c0 -250 4 -269 63 -305 29 -18 51 -20 213 -20 99 0 183 2
185 4 2 2 2 29 1 60 l-4 56 -137 0 c-191 0 -181 -13 -181 238 l0 192 -70 0
-70 0 0 -225z"/>
<path d="M2495 1784 c-75 -44 -75 -44 -75 -250 0 -112 4 -192 11 -207 6 -14
28 -34 49 -46 35 -19 53 -21 221 -21 170 0 187 2 219 21 59 36 59 37 60 244 0
216 0 217 -76 259 -45 25 -52 26 -208 25 -150 -1 -164 -2 -201 -25z m319 -125
c25 -20 26 -23 26 -134 0 -143 -1 -145 -140 -145 -139 0 -140 2 -140 145 0
111 1 114 26 134 22 18 41 21 114 21 73 0 92 -3 114 -21z"/>
<path d="M3090 1803 c0 -5 0 -127 -1 -273 l0 -265 223 -3 c123 -1 234 0 246 3
13 3 35 18 48 32 20 22 24 36 24 92 -1 70 -12 95 -51 115 -32 16 -34 34 -6 45
38 15 57 49 57 105 0 63 -28 106 -87 135 -40 19 -61 21 -248 21 -113 0 -205
-3 -205 -7z m364 -135 c31 -13 41 -40 26 -68 -14 -27 -38 -31 -150 -28 l-95 3
-3 44 c-2 28 1 47 10 52 20 13 183 11 212 -3z m20 -204 c21 -21 20 -47 -3 -68
-15 -14 -36 -16 -127 -14 l-109 3 -3 33 c-6 61 -3 62 117 62 86 0 113 -3 125
-16z"/>
<path d="M3737 1803 c-4 -3 -7 -127 -7 -275 l0 -268 70 0 70 0 0 275 0 275
-63 0 c-35 0 -67 -3 -70 -7z"/>
<path d="M3977 1803 c-4 -3 -7 -33 -7 -65 l0 -58 98 0 c63 0 102 -4 110 -12 9
-9 12 -69 12 -210 l0 -198 70 0 70 0 0 204 c0 177 2 205 16 210 9 3 58 6 110
6 l95 0 -3 63 -3 62 -281 3 c-154 1 -283 -1 -287 -5z"/>
</g>
</svg>
